# xmcd
#
# Track frame offsets:
#	150
#	18956
#	32129
#	37046
#	46995
#	54047
#	63658
#	76707
#	90211
#	101976
#	114773
#	132685
#	144095
#	154642
#	167429
#	180214
#
# Disc length: 2633 seconds
#
# Revision: 0
# Processed by: cddbd v1.5.1PL0 Copyright (c) Steve Scherf et al.
# Submitted via: dBpowerAMP V4.0
#
DISCID=b70a4710
DTITLE=Various Artist - On And On
DYEAR=1900
DGENRE=
TTITLE0=Cocoon - 
TTITLE1=Cookie Jar - Jack Johnson
TTITLE2=Cupid - 
TTITLE3=Dreams Be Dreams - 
TTITLE4=Fall Line - 
TTITLE5=Gone - 
TTITLE6=Holes To Heaven - 
TTITLE7=Mediocre Bad Guys - 
TTITLE8=Rodeo Clowns - 
TTITLE9=Symbol In My Driveway - 
TTITLE10=Taylor - 
TTITLE11=The Horizon Has Been Defeated - 
TTITLE12=Times Like These - 
TTITLE13=Tomorrow - 
TTITLE14=Traffic In The Sky - 
TTITLE15=Wasting Time - 
EXTD=
EXTT0=
EXTT1=
EXTT2=
EXTT3=
EXTT4=
EXTT5=
EXTT6=
EXTT7=
EXTT8=
EXTT9=
EXTT10=
EXTT11=
EXTT12=
EXTT13=
EXTT14=
EXTT15=
PLAYORDER=
